<?xml version="1.0" encoding="utf-8"?>
<!-- Svg Vector Icons : http://www.onlinewebfonts.com/icon -->
<!DOCTYPE svg PUBLIC "-//W3C//DTD SVG 1.1//EN" "http://www.w3.org/Graphics/SVG/1.1/DTD/svg11.dtd">
<svg version="1.1" xmlns="http://www.w3.org/2000/svg" xmlns:xlink="http://www.w3.org/1999/xlink" x="0px" y="0px" viewBox="0 0 1000 1000" enable-background="new 0 0 1000 1000" xml:space="preserve">
<metadata> Svg Vector Icons : http://www.onlinewebfonts.com/icon </metadata>
<g><g transform="translate(0.000000,511.000000) scale(0.100000,-0.100000)"><path d="M4700.4,4738.9c-78.3-37.5-173.6-115.8-214.5-170.2c-37.5-54.5-330.2-629.9-650.3-1283.6c-316.6-650.3-578.8-1184.8-582.2-1184.8c-3.4-3.4-612.8-91.9-1351.7-200.9C550,1705.4,396.8,1667.9,260.6,1518.1C107.4,1347.9,53,1027.8,144.9,816.7c40.9-91.9,677.5-742.2,1746.6-1777.3l279.2-272.4l-217.9-1259.7c-122.6-691.2-221.3-1344.9-221.3-1450.4c0-252,129.4-466.4,357.5-575.4c286-139.6,343.9-119.2,1698.9,592.4L5000-3289.3l1215.5-640.1c1191.7-626.4,1222.2-640.1,1423.1-640.1c364.3,0,629.9,258.8,629.9,616.3c0,91.9-98.8,742.2-217.9,1443.6l-217.9,1276.8l987.4,970.3C9402.3,306,9831.3,752,9855.1,816.7c92,214.5,37.5,534.5-115.7,701.4c-136.2,149.8-289.4,187.3-1641.1,381.3c-738.8,109-1348.3,197.5-1351.6,200.9c-3.4,0-279.2,565.2-616.2,1252.9C5555,4521,5507.3,4609.6,5374.5,4694.7C5180.5,4824.1,4904.7,4844.5,4700.4,4738.9z"/></g></g>
</svg>